<?xml version="1.0" encoding="UTF-8" standalone="no"?>
<!-- Created with Inkscape (http://www.inkscape.org/) -->

<svg
   xmlns:dc="http://purl.org/dc/elements/1.1/"
   xmlns:cc="http://creativecommons.org/ns#"
   xmlns:rdf="http://www.w3.org/1999/02/22-rdf-syntax-ns#"
   xmlns:svg="http://www.w3.org/2000/svg"
   xmlns="http://www.w3.org/2000/svg"
   xmlns:sodipodi="http://sodipodi.sourceforge.net/DTD/sodipodi-0.dtd"
   xmlns:inkscape="http://www.inkscape.org/namespaces/inkscape"
   width="653.30524"
   height="311.97449"
   id="svg2"
   version="1.1"
   inkscape:version="0.48.4 r9939"
   sodipodi:docname="customize-logo.svg"
   inkscape:export-filename="/home/nknappmeier/customize-logo.png"
   inkscape:export-xdpi="90"
   inkscape:export-ydpi="90">
  <defs
     id="defs4">
    <inkscape:perspective
       sodipodi:type="inkscape:persp3d"
       inkscape:vp_x="0 : 526.18109 : 1"
       inkscape:vp_y="0 : 1000 : 0"
       inkscape:vp_z="744.09448 : 526.18109 : 1"
       inkscape:persp3d-origin="372.04724 : 350.78739 : 1"
       id="perspective3834" />
    <filter
       inkscape:collect="always"
       id="filter3887"
       x="-0.030837659"
       width="1.0616753"
       y="-0.15275398"
       height="1.305508"
       color-interpolation-filters="sRGB">
      <feGaussianBlur
         inkscape:collect="always"
         stdDeviation="7.8195487"
         id="feGaussianBlur3889" />
    </filter>
  </defs>
  <sodipodi:namedview
     id="base"
     pagecolor="#ffffff"
     bordercolor="#666666"
     borderopacity="1.0"
     inkscape:pageopacity="0.0"
     inkscape:pageshadow="2"
     inkscape:zoom="0.98994949"
     inkscape:cx="340.27686"
     inkscape:cy="28.258517"
     inkscape:document-units="px"
     inkscape:current-layer="layer1"
     showgrid="false"
     inkscape:window-width="1600"
     inkscape:window-height="1175"
     inkscape:window-x="0"
     inkscape:window-y="24"
     inkscape:window-maximized="1"
     fit-margin-top="5"
     fit-margin-left="0"
     fit-margin-right="0"
     fit-margin-bottom="0" />
  <metadata
     id="metadata7">
    <rdf:RDF>
      <cc:Work
         rdf:about="">
        <dc:format>image/svg+xml</dc:format>
        <dc:type
           rdf:resource="http://purl.org/dc/dcmitype/StillImage" />
        <dc:title></dc:title>
      </cc:Work>
    </rdf:RDF>
  </metadata>
  <g
     inkscape:label="Ebene 1"
     inkscape:groupmode="layer"
     id="layer1"
     transform="translate(-21.204514,-172.7546)">
    <text
       xml:space="preserve"
       style="font-size:103.64893341px;font-style:normal;font-variant:normal;font-weight:bold;font-stretch:normal;line-height:125%;letter-spacing:0px;word-spacing:0px;fill:#000000;fill-opacity:1;stroke:none;font-family:Helvetica Neue;-inkscape-font-specification:Helvetica Neue Bold"
       x="185.17845"
       y="337.98224"
       id="text2985-1"
       sodipodi:linespacing="125%"
       transform="matrix(0.99999969,-7.8817599e-4,7.8817599e-4,0.99999969,0,0)"><tspan
         sodipodi:role="line"
         id="tspan2987-3"
         x="185.17845"
         y="337.98224"
         style="font-style:normal;font-variant:normal;font-weight:bold;font-stretch:normal;fill:#000000;font-family:Helvetica Neue;-inkscape-font-specification:Helvetica Neue Bold"><tspan
           style="fill:#000000"
           id="tspan3002-9">m</tspan></tspan></text>
    <g
       transform="matrix(-0.28613802,0,0,0.22498265,463.09987,147.93166)"
       inkscape:label="Layer 1"
       id="layer1-3">
      <path
         d="m 277.06,133.41 -7.125,7.6562 v 5.6875 l -55.5,51.531 -37.25,213.97 -3.75,9.5 -35.031,25.812 1.8438,7.375 36.87,-19.82 91.1,-208.28 81.78,249.78 28,78.844 39.906,94.781 -24,0.96875 2.1875,29.625 27.438,2.2188 4.375,15.344 h 12.094 v 19.75 l -5.5,2.1875 -1.0938,133.84 h 64.719 l -8,-129.97 47.5,-1.6875 v -57.031 l -14.438,-0.96875 -1.8125,8.5 -39.5,-0.375 64.781,-160.69 8.9375,-1.625 6.25,15.812 -4.85,3.83 6.72,27.03 28.5,-16.719 -8.5,-26 -10.344,4.5312 -6.5,-33 -19.844,-49.406 -7.1875,1.5938 0.71875,4.0312 -18.219,11.719 -222.25,-295.12 -12.062,-13.719 -4.5,-10.812 -6.4688,-0.6875 z m 7.125,15.469 13.531,22.469 216.69,287.5 -116.69,74.969 -125.16,-321.69 8.2188,-56.562 3.4062,-6.6875 z m -15.9,6.96 -10.9,53.04 -0.57,1.21 -33.43,-10.09 44.9,-44.16 z m -48.25,49.125 34.781,10.594 -72.531,183.78 37.75,-194.38 z m 321.28,241.38 7.25,41.125 -2.75,0.90625 -15.75,-24.375 -5.25,-6.9688 16.5,-10.688 z m -24.406,15.812 5.6562,7.5 17.594,20.625 -7.875,2.6562 -3.5625,8.6875 -14.312,0.78125 -1.1875,-7.2812 -29.094,2.9062 0.125,18.375 -74.844,15.469 107.5,-69.719 z m -32.625,60.094 0.125,19.938 21.781,1.125 -57.43,105.73 -14.53,0.59 -24.28,-84.37 -10.03,-25.75 84.375,-17.25 z"
         inkscape:connector-curvature="0"
         style="fill:#000000;stroke:#000000;stroke-width:1.51341355px"
         id="path2998" />
    </g>
    <rect
       style="fill:none;stroke:#000000;stroke-width:7.19999981;stroke-linecap:round;stroke-linejoin:round;stroke-miterlimit:4;stroke-dasharray:none;stroke-dashoffset:0;filter:url(#filter3887)"
       id="rect2989"
       width="608.57141"
       height="122.85714"
       x="43.57143"
       y="339.50504"
       rx="13.119849"
       ry="15.140145" />
    <rect
       ry="15.140145"
       rx="13.119849"
       y="339.50504"
       x="43.57143"
       height="122.85714"
       width="608.57141"
       id="rect3877"
       style="fill:#aaaaff;stroke:#162d50;stroke-width:6.80000019;stroke-linecap:round;stroke-linejoin:round;stroke-miterlimit:4;stroke-dasharray:none;stroke-dashoffset:0" />
    <text
       sodipodi:linespacing="125%"
       id="text3028"
       y="399.09268"
       x="372.36691"
       style="font-size:103.64893341px;font-style:italic;font-variant:normal;font-weight:normal;font-stretch:normal;line-height:125%;letter-spacing:0px;word-spacing:0px;fill:#ff6600;fill-opacity:1;stroke:#000000;font-family:Helvetica Neue;-inkscape-font-specification:Droid Serif Italic"
       xml:space="preserve"><tspan
         style="font-style:italic;font-variant:normal;font-weight:normal;font-stretch:normal;fill:#ff6600;stroke:#000000;font-family:Droid Serif;-inkscape-font-specification:Droid Serif Italic"
         y="399.09268"
         x="372.36691"
         id="tspan3030"
         sodipodi:role="line">m</tspan></text>
    <path
       style="fill:none;stroke:#000000;stroke-width:1px;stroke-linecap:butt;stroke-linejoin:miter;stroke-opacity:1"
       d="M 419.28571,248.07647 420,303.69793"
       id="path3850"
       inkscape:connector-curvature="0" />
    <path
       style="fill:none;stroke:#000000;stroke-width:1px;stroke-linecap:butt;stroke-linejoin:miter;stroke-opacity:1"
       d="M 389.28571,345.21932 420,303.07647 l 31.42857,41.42857"
       id="path3852"
       inkscape:connector-curvature="0" />
    <g
       id="g3870">
      <text
         sodipodi:linespacing="125%"
         id="text2985"
         y="436.74673"
         x="79.009911"
         style="font-size:103.64893341px;font-style:normal;font-variant:normal;font-weight:bold;font-stretch:normal;line-height:125%;letter-spacing:0px;word-spacing:0px;fill:#000000;fill-opacity:1;stroke:none;font-family:Helvetica Neue;-inkscape-font-specification:Helvetica Neue Bold"
         xml:space="preserve"><tspan
           style="font-style:normal;font-variant:normal;font-weight:bold;font-stretch:normal;font-family:Helvetica Neue;-inkscape-font-specification:Helvetica Neue Bold"
           y="436.74673"
           x="79.009911"
           id="tspan2987"
           sodipodi:role="line">Custo<tspan
   id="tspan3002"
   style="fill:none" /></tspan></text>
      <text
         xml:space="preserve"
         style="font-size:103.64893341px;font-style:normal;font-variant:normal;font-weight:bold;font-stretch:normal;line-height:125%;letter-spacing:0px;word-spacing:0px;fill:#000000;fill-opacity:1;stroke:none;font-family:Helvetica Neue;-inkscape-font-specification:Helvetica Neue Bold"
         x="467.00992"
         y="436.74673"
         id="text3854"
         sodipodi:linespacing="125%"><tspan
           sodipodi:role="line"
           id="tspan3856"
           x="467.00992"
           y="436.74673"
           style="font-style:normal;font-variant:normal;font-weight:bold;font-stretch:normal;font-family:Helvetica Neue;-inkscape-font-specification:Helvetica Neue Bold">ize</tspan></text>
    </g>
  </g>
</svg>
