<?xml version="1.0" encoding="UTF-8" standalone="no"?>
<!-- Created with Inkscape (http://www.inkscape.org/) -->

<svg
   xmlns:dc="http://purl.org/dc/elements/1.1/"
   xmlns:cc="http://creativecommons.org/ns#"
   xmlns:rdf="http://www.w3.org/1999/02/22-rdf-syntax-ns#"
   xmlns:svg="http://www.w3.org/2000/svg"
   xmlns="http://www.w3.org/2000/svg"
   xmlns:sodipodi="http://sodipodi.sourceforge.net/DTD/sodipodi-0.dtd"
   xmlns:inkscape="http://www.inkscape.org/namespaces/inkscape"
   width="653.30524"
   height="311.97449"
   id="svg2"
   version="1.1"
   inkscape:version="0.48.4 r9939"
   sodipodi:docname="customize-logo.svg"
   inkscape:export-filename="/home/nknappmeier/customize-logo.png"
   inkscape:export-xdpi="90"
   inkscape:export-ydpi="90">
  <defs
     id="defs4">
    <inkscape:perspective
       sodipodi:type="inkscape:persp3d"
       inkscape:vp_x="0 : 526.18109 : 1"
       inkscape:vp_y="0 : 1000 : 0"
       inkscape:vp_z="744.09448 : 526.18109 : 1"
       inkscape:persp3d-origin="372.04724 : 350.78739 : 1"
       id="perspective3834" />
    <filter
       inkscape:collect="always"
       id="filter3887"
       x="-0.030837659"
       width="1.0616753"
       y="-0.15275398"
       height="1.305508"
       color-interpolation-filters="sRGB">
      <feGaussianBlur
         inkscape:collect="always"
         stdDeviation="7.8195487"
         id="feGaussianBlur3889" />
    </filter>
  </defs>
  <sodipodi:namedview
     id="base"
     pagecolor="#ffffff"
     bordercolor="#666666"
     borderopacity="1.0"
     inkscape:pageopacity="0.0"
     inkscape:pageshadow="2"
     inkscape:zoom="0.98994949"
     inkscape:cx="340.27686"
     inkscape:cy="28.258517"
     inkscape:document-units="px"
     inkscape:current-layer="layer1"
     showgrid="false"
     inkscape:window-width="1600"
     inkscape:window-height="1175"
     inkscape:window-x="0"
     inkscape:window-y="24"
     inkscape:window-maximized="1"
     fit-margin-top="5"
     fit-margin-left="0"
     fit-margin-right="0"
     fit-margin-bottom="0" />
  <metadata
     id="metadata7">
    <rdf:RDF>
      <cc:Work
         rdf:about="">
        <dc:format>image/svg+xml</dc:format>
        <dc:type
           rdf:resource="http://purl.org/dc/dcmitype/StillImage" />
        <dc:title></dc:title>
      </cc:Work>
    </rdf:RDF>
  </metadata>
  <g
     inkscape:label="Ebene 1"
     inkscape:groupmode="layer"
     id="layer1"
     transform="translate(-21.204514,-172.7546)">
    <g
       transform="matrix(0.99999969,-7.8817599e-4,7.8817599e-4,0.99999969,0,0)"
       style="font-size:103.64893341px;font-style:normal;font-variant:normal;font-weight:bold;font-stretch:normal;line-height:125%;letter-spacing:0px;word-spacing:0px;fill:#000000;fill-opacity:1;stroke:none;font-family:Helvetica Neue;-inkscape-font-specification:Helvetica Neue Bold"
       id="text2985-1">
      <path
         d="m 191.19009,284.39574 0,53.5865 14.71815,0 0,-31.09468 c -2e-5,-2.62574 0.38002,-4.73327 1.14014,-6.32259 0.76007,-1.65834 1.65836,-2.90213 2.69487,-3.73136 1.10556,-0.89825 2.21115,-1.48559 3.31676,-1.76203 1.17466,-0.34545 2.1075,-0.5182 2.79853,-0.51824 2.34934,4e-5 4.11137,0.41463 5.28609,1.24378 1.24375,0.76014 2.10749,1.79662 2.59122,3.10947 0.55276,1.31293 0.86371,2.76401 0.93285,4.35326 0.0691,1.52021 0.1036,3.07495 0.10364,4.6642 l 0,30.05819 14.71815,0 0,-29.85089 c -5e-5,-1.65836 0.1036,-3.28219 0.31095,-4.8715 0.27634,-1.65835 0.76004,-3.10943 1.45108,-4.35326 0.76004,-1.31285 1.76198,-2.34933 3.00582,-3.10947 1.31283,-0.82915 3.00576,-1.24374 5.0788,-1.24378 2.07291,4e-5 3.69675,0.34554 4.8715,1.03649 1.24372,0.69103 2.17656,1.62387 2.79852,2.79852 0.62182,1.17472 1.00187,2.55671 1.14014,4.14595 0.13813,1.58932 0.20723,3.28225 0.2073,5.0788 l 0,30.36914 14.71815,0 0,-35.86253 c -9e-5,-3.45493 -0.48379,-6.39164 -1.45109,-8.81016 -0.96747,-2.48753 -2.31491,-4.49141 -4.04231,-6.01164 -1.72756,-1.52013 -3.80054,-2.62572 -6.21893,-3.31677 -2.41855,-0.69093 -5.04432,-1.03643 -7.87732,-1.03648 -3.73143,5e-5 -6.97909,0.89834 -9.743,2.69487 -2.69493,1.79663 -4.83701,3.86961 -6.42623,6.21893 -1.45114,-3.31671 -3.59322,-5.63154 -6.42624,-6.94448 -2.76401,-1.31283 -5.83893,-1.96927 -9.22475,-1.96932 -3.5241,5e-5 -6.66812,0.76014 -9.43206,2.28027 -2.69489,1.52024 -5.00972,3.66231 -6.94448,6.42624 l -0.20729,0 0,-7.25543 -13.88896,0"
         style="fill:#000000"
         id="path3043" />
    </g>
    <g
       transform="matrix(-0.28613802,0,0,0.22498265,463.09987,147.93166)"
       inkscape:label="Layer 1"
       id="layer1-3">
      <path
         d="m 277.06,133.41 -7.125,7.6562 v 5.6875 l -55.5,51.531 -37.25,213.97 -3.75,9.5 -35.031,25.812 1.8438,7.375 36.87,-19.82 91.1,-208.28 81.78,249.78 28,78.844 39.906,94.781 -24,0.96875 2.1875,29.625 27.438,2.2188 4.375,15.344 h 12.094 v 19.75 l -5.5,2.1875 -1.0938,133.84 h 64.719 l -8,-129.97 47.5,-1.6875 v -57.031 l -14.438,-0.96875 -1.8125,8.5 -39.5,-0.375 64.781,-160.69 8.9375,-1.625 6.25,15.812 -4.85,3.83 6.72,27.03 28.5,-16.719 -8.5,-26 -10.344,4.5312 -6.5,-33 -19.844,-49.406 -7.1875,1.5938 0.71875,4.0312 -18.219,11.719 -222.25,-295.12 -12.062,-13.719 -4.5,-10.812 -6.4688,-0.6875 z m 7.125,15.469 13.531,22.469 216.69,287.5 -116.69,74.969 -125.16,-321.69 8.2188,-56.562 3.4062,-6.6875 z m -15.9,6.96 -10.9,53.04 -0.57,1.21 -33.43,-10.09 44.9,-44.16 z m -48.25,49.125 34.781,10.594 -72.531,183.78 37.75,-194.38 z m 321.28,241.38 7.25,41.125 -2.75,0.90625 -15.75,-24.375 -5.25,-6.9688 16.5,-10.688 z m -24.406,15.812 5.6562,7.5 17.594,20.625 -7.875,2.6562 -3.5625,8.6875 -14.312,0.78125 -1.1875,-7.2812 -29.094,2.9062 0.125,18.375 -74.844,15.469 107.5,-69.719 z m -32.625,60.094 0.125,19.938 21.781,1.125 -57.43,105.73 -14.53,0.59 -24.28,-84.37 -10.03,-25.75 84.375,-17.25 z"
         inkscape:connector-curvature="0"
         style="fill:#000000;stroke:#000000;stroke-width:1.51341355px"
         id="path2998" />
    </g>
    <rect
       style="fill:none;stroke:#000000;stroke-width:7.19999981;stroke-linecap:round;stroke-linejoin:round;stroke-miterlimit:4;stroke-dasharray:none;stroke-dashoffset:0;filter:url(#filter3887)"
       id="rect2989"
       width="608.57141"
       height="122.85714"
       x="43.57143"
       y="339.50504"
       rx="13.119849"
       ry="15.140145" />
    <rect
       ry="15.140145"
       rx="13.119849"
       y="339.50504"
       x="43.57143"
       height="122.85714"
       width="608.57141"
       id="rect3877"
       style="fill:#aaaaff;stroke:#162d50;stroke-width:6.80000019;stroke-linecap:round;stroke-linejoin:round;stroke-miterlimit:4;stroke-dasharray:none;stroke-dashoffset:0" />
    <g
       style="font-size:103.64893341px;font-style:italic;font-variant:normal;font-weight:normal;font-stretch:normal;line-height:125%;letter-spacing:0px;word-spacing:0px;fill:#ff6600;fill-opacity:1;stroke:#000000;font-family:Helvetica Neue;-inkscape-font-specification:Droid Serif Italic"
       id="text3028">
      <path
         d="m 418.92796,399.09268 -9.86892,0 c -4e-5,-1.55203 0.43858,-5.12846 1.31586,-10.72928 0.87719,-5.63455 1.61947,-9.83516 2.22683,-12.60185 l 2.37866,-10.72928 c 1.01215,-4.18371 1.51825,-7.40587 1.5183,-9.66648 -5e-5,-4.08248 -1.58582,-6.12374 -4.75733,-6.12379 -3.84638,5e-5 -7.81081,2.63176 -11.89331,7.89513 -4.04881,5.22972 -6.61304,10.37505 -7.69269,15.436 l -5.56708,26.51955 -9.66648,0 8.70489,-41.65189 c 0.40486,-1.92313 0.6073,-3.47516 0.60732,-4.6561 -2e-5,-3.27272 -2.41242,-4.90911 -7.23721,-4.90916 l -0.80976,0 0.91098,-4.35244 19.18113,0 -2.78354,13.05733 1.01219,0 c 5.60079,-9.31215 11.89328,-13.96825 18.87747,-13.96831 7.38898,6e-5 11.0835,3.82953 11.08355,11.48843 -5e-5,0.84354 -0.0675,1.67017 -0.20244,2.47988 l 1.0122,0 c 5.6345,-9.31215 11.92698,-13.96825 18.87747,-13.96831 7.38895,6e-5 11.08346,3.82953 11.08355,11.48843 -9e-5,2.19314 -0.62427,5.98887 -1.87256,11.38721 l -2.68233,12.24758 c -0.87731,4.01507 -1.31593,7.6421 -1.31585,10.88112 -8e-5,3.30651 1.19768,4.95977 3.5933,4.95976 1.99057,10e-6 4.20053,-0.79288 6.62988,-2.37866 l 1.87257,3.03659 c -4.38627,3.91383 -8.60376,5.87074 -12.65246,5.87074 -2.83423,0 -5.11167,-0.92785 -6.83233,-2.78354 -1.7208,-1.85569 -2.58117,-4.36931 -2.5811,-7.54087 -7e-5,-3.17153 0.65786,-7.8445 1.97379,-14.01892 l 1.77134,-8.09757 c 1.45074,-6.64672 2.17615,-10.74611 2.17622,-12.29819 -7e-5,-4.08248 -1.60272,-6.12374 -4.80793,-6.12379 -3.54276,5e-5 -7.20353,2.27749 -10.98233,6.83233 -3.77893,4.52118 -6.42751,9.26163 -7.94575,14.22136 l -1.67012,7.43964 c -0.43867,1.88946 -1.04599,5.58397 -1.82196,11.08356 -0.77606,5.4996 -1.16407,8.9242 -1.16402,10.27379"
         style="fill:#ff6600;stroke:#000000;font-family:Droid Serif;-inkscape-font-specification:Droid Serif Italic"
         id="path3040" />
    </g>
    <path
       style="fill:none;stroke:#000000;stroke-width:1px;stroke-linecap:butt;stroke-linejoin:miter;stroke-opacity:1"
       d="M 419.28571,248.07647 420,303.69793"
       id="path3850"
       inkscape:connector-curvature="0" />
    <path
       style="fill:none;stroke:#000000;stroke-width:1px;stroke-linecap:butt;stroke-linejoin:miter;stroke-opacity:1"
       d="M 389.28571,345.21932 420,303.07647 l 31.42857,41.42857"
       id="path3852"
       inkscape:connector-curvature="0" />
    <g
       id="g3870">
      <g
         style="font-size:103.64893341px;font-style:normal;font-variant:normal;font-weight:bold;font-stretch:normal;line-height:125%;letter-spacing:0px;word-spacing:0px;fill:#000000;fill-opacity:1;stroke:none;font-family:Helvetica Neue;-inkscape-font-specification:Helvetica Neue Bold"
         id="text2985">
        <path
           d="m 135.49858,387.61714 15.75464,0 c -0.48377,-4.2841 -1.65846,-8.08456 -3.52407,-11.40138 -1.86574,-3.3167 -4.24967,-6.08067 -7.15177,-8.29192 -2.83313,-2.2802 -6.0808,-4.00768 -9.743,-5.18244 -3.59321,-1.17462 -7.42822,-1.76196 -11.50503,-1.76204 -5.66618,8e-5 -10.77952,1.00202 -15.34005,3.00582 -4.491471,2.00395 -8.291928,4.76792 -11.401379,8.29192 -3.109479,3.52412 -5.493402,7.67008 -7.151777,12.43787 -1.658387,4.6988 -2.487578,9.81214 -2.487574,15.34004 -4e-6,5.38978 0.829187,10.43402 2.487574,15.13275 1.658375,4.62967 4.042298,8.67197 7.151777,12.12692 3.109451,3.45497 6.909908,6.18439 11.401379,8.18827 4.56053,1.93478 9.67387,2.90217 15.34005,2.90217 4.5605,0 8.74101,-0.691 12.54152,-2.07298 3.8004,-1.38199 7.11716,-3.38586 9.95029,-6.01164 2.83301,-2.62576 5.11328,-5.80433 6.84083,-9.5357 1.72741,-3.73134 2.79845,-7.91185 3.21312,-12.54152 l -15.75464,0 c -0.62195,4.97517 -2.34943,8.98293 -5.18244,12.02327 -2.76402,3.04039 -6.63358,4.56057 -11.60868,4.56056 -3.6623,10e-6 -6.77177,-0.69098 -9.32841,-2.07298 -2.5567,-1.45107 -4.62968,-3.3513 -6.21893,-5.70069 -1.58931,-2.34936 -2.764,-4.97513 -3.52407,-7.87732 -0.691012,-2.97124 -1.036508,-6.01161 -1.036487,-9.12111 -2.1e-5,-3.24762 0.345475,-6.39164 1.036487,-9.43205 0.76007,-3.04032 1.93476,-5.73519 3.52407,-8.08462 1.58925,-2.41842 3.66223,-4.31864 6.21893,-5.70069 2.55664,-1.45102 5.66611,-2.17656 9.32841,-2.17663 2.00383,7e-5 3.90406,0.34556 5.70069,1.03649 1.86563,0.62196 3.52401,1.52025 4.97515,2.69488 1.45103,1.17474 2.66026,2.55672 3.62771,4.14595 0.96733,1.52024 1.58923,3.21317 1.86568,5.0788"
           style="font-family:Helvetica Neue;-inkscape-font-specification:Helvetica Neue Bold"
           id="path3022" />
        <path
           d="m 211.60119,436.74673 0,-53.58649 -14.71815,0 0,28.08886 c -4e-5,5.45886 -0.89833,9.39752 -2.69487,11.81598 -1.79662,2.34938 -4.69879,3.52407 -8.70651,3.52406 -3.52409,1e-5 -5.97712,-1.07103 -7.35908,-3.21312 -1.382,-2.21116 -2.073,-5.52792 -2.07298,-9.9503 l 0,-30.26548 -14.71814,0 0,32.96036 c -1e-5,3.31678 0.27639,6.35715 0.82919,9.1211 0.62188,2.69488 1.65837,5.00971 3.10947,6.94448 1.45107,1.86569 3.4204,3.31677 5.90798,4.35326 2.55666,1.03649 5.80432,1.55473 9.743,1.55473 3.10944,0 6.14981,-0.69099 9.12111,-2.07298 2.97123,-1.38198 5.3897,-3.62771 7.25543,-6.73718 l 0.31094,0 0,7.46272 13.99261,0"
           style="font-family:Helvetica Neue;-inkscape-font-specification:Helvetica Neue Bold"
           id="path3024" />
        <path
           d="m 234.27439,419.33371 -13.99261,0 c 0.1382,3.59318 0.93284,6.599 2.38393,9.01746 1.52017,2.34938 3.4204,4.24961 5.70069,5.70069 2.34936,1.45109 5.00968,2.48758 7.98097,3.10947 2.97124,0.62189 6.01161,0.93284 9.1211,0.93284 3.04034,0 6.01161,-0.31095 8.91381,-0.93284 2.97123,-0.55279 5.597,-1.55473 7.87732,-3.00582 2.28023,-1.45108 4.11136,-3.35131 5.49339,-5.70069 1.45104,-2.41846 2.17658,-5.38973 2.17663,-8.91381 -5e-5,-2.48755 -0.48375,-4.56053 -1.45108,-6.21893 -0.96744,-1.72746 -2.24578,-3.144 -3.83501,-4.24961 -1.58933,-1.17466 -3.42046,-2.1075 -5.4934,-2.79852 -2.00392,-0.69096 -4.07689,-1.27831 -6.21893,-1.76203 -2.07302,-0.48367 -4.11144,-0.93281 -6.11529,-1.34744 -2.00391,-0.41456 -3.80049,-0.86371 -5.38975,-1.34744 -1.5202,-0.55275 -2.76399,-1.24375 -3.73136,-2.07297 -0.96741,-0.82916 -1.4511,-1.9002 -1.45108,-3.21312 -2e-5,-1.10555 0.27638,-1.96929 0.82919,-2.59122 0.55277,-0.69095 1.20922,-1.2092 1.96933,-1.55474 0.82917,-0.34545 1.72746,-0.55275 2.69487,-0.62189 0.96737,-0.13816 1.86566,-0.20726 2.69487,-0.2073 2.62575,4e-5 4.90602,0.51829 6.84083,1.55473 1.93475,0.96744 3.00579,2.86766 3.21312,5.70069 l 13.99261,0 c -0.27645,-3.31672 -1.14019,-6.04614 -2.59123,-8.18826 -1.38203,-2.21113 -3.14406,-3.97316 -5.28609,-5.2861 -2.14212,-1.31283 -4.59514,-2.24567 -7.35908,-2.79852 -2.6949,-0.55274 -5.49342,-0.82913 -8.39556,-0.82919 -2.9022,6e-5 -5.73526,0.27645 -8.49921,0.82919 -2.76399,0.48375 -5.25156,1.38204 -7.46273,2.69487 -2.21118,1.24384 -4.00776,2.97132 -5.38974,5.18245 -1.31289,2.21122 -1.96934,5.04429 -1.96933,8.49921 -10e-6,2.34942 0.48369,4.35329 1.45108,6.01164 0.96739,1.58932 2.24572,2.93675 3.83501,4.04231 1.58928,1.03652 3.38586,1.90026 5.38975,2.59122 2.07296,0.62192 4.18049,1.17472 6.32258,1.65839 5.25152,1.10561 9.32838,2.2112 12.23058,3.31676 2.97123,1.10561 4.45686,2.76399 4.4569,4.97515 -4e-5,1.3129 -0.31098,2.41849 -0.93284,3.31677 -0.62193,0.8292 -1.41657,1.52019 -2.38392,2.07298 -0.89833,0.4837 -1.93482,0.86375 -3.10947,1.14013 -1.10562,0.20731 -2.17666,0.31096 -3.21312,0.31095 -1.45111,10e-6 -2.86764,-0.17274 -4.2496,-0.51824 -1.31291,-0.34549 -2.4876,-0.86373 -3.52407,-1.55474 -1.03651,-0.76008 -1.90025,-1.69292 -2.59122,-2.79852 -0.62191,-1.17467 -0.93286,-2.55666 -0.93284,-4.14596"
           style="font-family:Helvetica Neue;-inkscape-font-specification:Helvetica Neue Bold"
           id="path3026" />
        <path
           d="m 297.20064,383.16024 0,-16.06559 -14.71815,0 0,16.06559 -8.91381,0 0,9.84664 8.91381,0 0,31.61293 c -10e-6,2.69488 0.44913,4.87151 1.34743,6.52988 0.89828,1.65839 2.10752,2.93672 3.62772,3.83501 1.58926,0.89829 3.38584,1.48564 5.38974,1.76203 2.07296,0.3455 4.24958,0.51825 6.52988,0.51825 1.45106,0 2.93669,-0.0345 4.45691,-0.10365 1.52015,-0.0691 2.90213,-0.2073 4.14595,-0.4146 l 0,-11.40138 c -0.69102,0.13821 -1.41656,0.24186 -2.17662,0.31095 -0.76013,0.0691 -1.55477,0.10366 -2.38393,0.10365 -2.4876,10e-6 -4.14598,-0.41459 -4.97515,-1.24379 -0.82921,-0.82918 -1.24381,-2.48756 -1.24378,-4.97515 l 0,-26.53413 10.77948,0 0,-9.84664 -10.77948,0"
           style="font-family:Helvetica Neue;-inkscape-font-specification:Helvetica Neue Bold"
           id="path3028" />
        <path
           d="m 328.04266,410.00531 c -1e-5,-2.14205 0.20728,-4.24958 0.6219,-6.32259 0.41457,-2.07294 1.10557,-3.90407 2.07298,-5.49339 1.03646,-1.58924 2.3839,-2.86758 4.04231,-3.83501 1.65835,-1.03645 3.73133,-1.55469 6.21893,-1.55473 2.48754,4e-5 4.56052,0.51828 6.21894,1.55473 1.72744,0.96743 3.07487,2.24577 4.04231,3.83501 1.03644,1.58932 1.76198,3.42045 2.17662,5.49339 0.41455,2.07301 0.62185,4.18054 0.6219,6.32259 -5e-5,2.1421 -0.20735,4.24963 -0.6219,6.32258 -0.41464,2.0039 -1.14018,3.83503 -2.17662,5.4934 -0.96744,1.5893 -2.31487,2.86763 -4.04231,3.83501 -1.65842,0.9674 -3.7314,1.45109 -6.21894,1.45108 -2.4876,1e-5 -4.56058,-0.48368 -6.21893,-1.45108 -1.65841,-0.96738 -3.00585,-2.24571 -4.04231,-3.83501 -0.96741,-1.65837 -1.65841,-3.4895 -2.07298,-5.4934 -0.41462,-2.07295 -0.62191,-4.18048 -0.6219,-6.32258 m -14.71814,0 c -1e-5,4.28418 0.65643,8.15373 1.96933,11.60868 1.31288,3.45498 3.17855,6.42624 5.59704,8.91381 2.41846,2.41848 5.32063,4.28416 8.70651,5.59704 3.38584,1.31289 7.1863,1.96933 11.40138,1.96933 4.21502,0 8.01548,-0.65644 11.40138,-1.96933 3.45492,-1.31288 6.39164,-3.17856 8.81016,-5.59704 2.41842,-2.48757 4.2841,-5.45883 5.59705,-8.91381 1.31282,-3.45495 1.96927,-7.3245 1.96933,-11.60868 -6e-5,-4.28413 -0.65651,-8.15368 -1.96933,-11.60868 -1.31295,-3.52402 -3.17863,-6.49529 -5.59705,-8.91381 -2.41852,-2.48752 -5.35524,-4.38775 -8.81016,-5.70069 -3.3859,-1.38193 -7.18636,-2.07292 -11.40138,-2.07298 -4.21508,6e-5 -8.01554,0.69105 -11.40138,2.07298 -3.38588,1.31294 -6.28805,3.21317 -8.70651,5.70069 -2.41849,2.41852 -4.28416,5.38979 -5.59704,8.91381 -1.3129,3.455 -1.96934,7.32455 -1.96933,11.60868"
           style="font-family:Helvetica Neue;-inkscape-font-specification:Helvetica Neue Bold"
           id="path3030" />
      </g>
      <g
         style="font-size:103.64893341px;font-style:normal;font-variant:normal;font-weight:bold;font-stretch:normal;line-height:125%;letter-spacing:0px;word-spacing:0px;fill:#000000;fill-opacity:1;stroke:none;font-family:Helvetica Neue;-inkscape-font-specification:Helvetica Neue Bold"
         id="text3854">
        <path
           d="m 487.7397,374.86832 0,-12.12692 -14.71814,0 0,12.12692 14.71814,0 m -14.71814,8.29192 0,53.58649 14.71814,0 0,-53.58649 -14.71814,0"
           style="font-family:Helvetica Neue;-inkscape-font-specification:Helvetica Neue Bold"
           id="path3033" />
        <path
           d="m 496.01219,425.6563 0,11.09043 49.23324,0 0,-11.09043 -29.85089,0 27.88156,-31.40563 0,-11.09043 -45.19094,0 0,11.09043 25.80859,0 -27.88156,31.40563"
           style="font-family:Helvetica Neue;-inkscape-font-specification:Helvetica Neue Bold"
           id="path3035" />
        <path
           d="m 589.24764,404.20097 -23.9429,0 c 0.0691,-1.03646 0.27638,-2.21114 0.62189,-3.52406 0.41458,-1.31285 1.07102,-2.55664 1.96933,-3.73137 0.96737,-1.17464 2.21116,-2.14203 3.73136,-2.90217 1.58926,-0.82914 3.55859,-1.24374 5.90799,-1.24378 3.59313,4e-5 6.25345,0.96743 7.98097,2.90217 1.79654,1.93482 3.04033,4.76788 3.73136,8.49921 m -23.9429,9.3284 38.66105,0 c 0.27634,-4.14593 -0.0691,-8.11913 -1.03649,-11.91962 -0.96744,-3.80043 -2.55672,-7.18629 -4.76785,-10.1576 -2.14212,-2.97122 -4.90609,-5.32059 -8.29191,-7.04813 -3.38591,-1.79652 -7.35911,-2.69481 -11.91963,-2.69487 -4.07688,6e-5 -7.80824,0.7256 -11.19408,2.17663 -3.31679,1.45114 -6.1844,3.45501 -8.60287,6.01164 -2.41848,2.48762 -4.28416,5.45888 -5.59704,8.9138 -1.31289,3.455 -1.96933,7.18636 -1.96933,11.19409 0,4.14598 0.62189,7.94644 1.86568,11.40138 1.31288,3.45498 3.14401,6.42625 5.4934,8.91381 2.34936,2.48758 5.21698,4.42236 8.60286,5.80434 3.38584,1.31289 7.1863,1.96933 11.40138,1.96933 6.0807,0 11.26314,-1.38198 15.54734,-4.14596 4.28411,-2.76396 7.46267,-7.35906 9.5357,-13.7853 l -12.95611,0 c -0.48374,1.65839 -1.79663,3.24768 -3.93866,4.76785 -2.14212,1.45109 -4.69879,2.17663 -7.67003,2.17662 -4.14598,1e-5 -7.32454,-1.07102 -9.5357,-3.21311 -2.21119,-2.14207 -3.42043,-5.59703 -3.62771,-10.3649"
           style="font-family:Helvetica Neue;-inkscape-font-specification:Helvetica Neue Bold"
           id="path3037" />
      </g>
    </g>
  </g>
</svg>
